<?xml version="1.0" standalone="yes"?>

<svg version="1.1" viewBox="0.0 0.0 146.997375328084 71.2020997375328" fill="none" stroke="none" stroke-linecap="square" stroke-miterlimit="10" xmlns="http://www.w3.org/2000/svg" xmlns:xlink="http://www.w3.org/1999/xlink"><clipPath id="p.0"><path d="m0 0l146.99738 0l0 71.2021l-146.99738 0l0 -71.2021z" clip-rule="nonzero"></path></clipPath><g clip-path="url(#p.0)"><path fill="#000000" fill-opacity="0.0" d="m0 0l146.99738 0l0 71.2021l-146.99738 0z" fill-rule="evenodd"></path><path fill="#000000" fill-opacity="0.0" d="m0.002624672 0.8871391l146.99213 0l0 45.952755l-146.99213 0z" fill-rule="evenodd"></path><path fill="#efefef" d="m35.824066 29.77089q2.375 0 2.375 -1.8125q0 -0.859375 -0.984375 -1.3125q-0.640625 -0.328125 -1.703125 -0.609375q-1.046875 -0.296875 -1.796875 -0.609375q-0.75 -0.3125 -1.515625 -0.875q-1.625 -1.21875 -1.625 -3.65625q0 -2.4375 1.671875 -3.828125q1.6875 -1.390624 4.296875 -1.390624q2.609375 0 5.109375 1.171874l0 4.390625l-3.453125 0.21875l0 -1.921875q0 -0.234375 -0.03125 -0.28125q-0.109375 -0.203125 -1.3125 -0.203125q-1.1875 0 -1.71875 0.390625q-0.515625 0.375 -0.515625 1.171875q0 0.5625 0.4375 0.984375q0.296875 0.3125 0.984375 0.546875q0.703125 0.234375 1.5625 0.5q0.875 0.265625 1.578125 0.59375q0.703125 0.328125 1.453125 0.90625q1.671875 1.234375 1.671875 3.734375q0 2.5 -1.796875 3.9375q-1.78125 1.421875 -4.578125 1.421875q-2.78125 0 -5.28125 -1.171875l0 -4.578125l3.4375 -0.21875l0 1.984375q0 0.21875 0.015625 0.25q0.015625 0.03125 0.375 0.15625q0.375 0.109375 1.34375 0.109375zm8.387344 4.9375l0 -11.625q0 -0.21875 0 -0.21875q0 0 -0.125 0l-1.484375 -0.09375l0 -2.921875l5.046875 0l-0.296875 1.25q-0.1875 -0.265625 0.9375 -0.9375q1.125 -0.671875 2.65625 -0.671875q4.84375 0 4.84375 6.59375q0 3.421875 -1.546875 5.3125q-1.546875 1.890625 -4.203125 1.890625q-1.578125 0 -2.078125 -0.3125l0 1.953125l1.953125 0.109375l0 2.859375l-7.203125 0l0 -2.796875l1.25 -0.09375q0.1875 -0.015625 0.21875 -0.046875q0.03125 -0.03125 0.03125 -0.25zm7.609375 -8.375q0 -3.515625 -1.9375 -3.515625q-0.8125 0 -1.375 0.484375q-0.546875 0.484375 -0.546875 1.078125l0 5.265625q0.5625 0.359375 1.640625 0.359375q1.09375 0 1.65625 -1.0q0.5625 -1.015625 0.5625 -2.671875zm16.444458 -5.84375l0 9.28125q0 0.1875 0 0.1875q0 0 0.140625 0l1.234375 0.078125l0 2.890625l-4.8125 0l0.390625 -1.8125l0.0625 0.015625q-0.96875 2.109375 -3.3125 2.109375q-2.703125 0 -4.015625 -1.71875q-1.296875 -1.734375 -1.296875 -4.609375q0 -3.453125 1.71875 -5.4375q1.71875 -1.984375 5.125 -1.984375q2.140625 0 4.765625 1.0zm-3.78125 8.125l0 -5.90625q-0.28125 -0.125 -1.34375 -0.125q-1.3125 0 -1.9375 1.109375q-0.609375 1.109375 -0.609375 3.125q0 3.375 2.0 3.375q0.84375 0 1.359375 -0.484375q0.53125 -0.5 0.53125 -1.09375zm7.107956 1.125l0 -6.65625q0 -0.1875 -0.015625 -0.1875q0 -0.015625 -0.125 -0.03125l-1.46875 -0.09375l0 -2.921875l5.0625 0l-0.28125 1.28125q-0.1875 -0.234375 0.84375 -0.9375q1.03125 -0.703125 2.34375 -0.703125q1.328125 0 2.796875 0.71875l0 4.359375l-3.234375 0.25l0 -1.65625q0.078125 -0.21875 0.046875 -0.140625q-0.15625 -0.078125 -0.4375 -0.078125q-0.734375 0 -1.203125 0.53125q-0.46875 0.53125 -0.46875 1.390625l0 5.09375l2.078125 0.09375l0 2.875l-7.421875 0l0 -2.796875l1.234375 -0.09375q0.1875 -0.015625 0.21875 -0.046875q0.03125 -0.03125 0.03125 -0.25zm12.416092 -12.421875l2.40625 0l0 2.53125l3.25 0l-0.359375 3.015625l-2.890625 0l0 5.8125q0 0.875 0.234375 1.140625q0.25 0.265625 0.875 0.265625q0.625 0 1.828125 -0.765625l1.078125 2.796875q-1.640625 1.15625 -3.65625 1.15625q-1.171875 0 -2.0 -0.3125q-0.828125 -0.3125 -1.28125 -0.734375q-0.4375 -0.421875 -0.671875 -1.15625q-0.21875 -0.734375 -0.25 -1.140625q-0.015625 -0.40625 -0.015625 -1.140625l0 -5.921875l-1.78125 0l0.390625 -2.71875q1.3125 -0.109375 1.78125 -0.6875q0.484375 -0.59375 1.0625 -2.140625zm18.001099 3.171875l0 9.28125q0 0.1875 0 0.1875q0 0 0.140625 0l1.234375 0.078125l0 2.890625l-4.8125 0l0.390625 -1.8125l0.0625 0.015625q-0.96875 2.109375 -3.3125 2.109375q-2.703125 0 -4.015625 -1.71875q-1.296875 -1.734375 -1.296875 -4.609375q0 -3.453125 1.71875 -5.4375q1.71875 -1.984375 5.125 -1.984375q2.140625 0 4.765625 1.0zm-3.78125 8.125l0 -5.90625q-0.28125 -0.125 -1.34375 -0.125q-1.3125 0 -1.9375 1.109375q-0.609375 1.109375 -0.609375 3.125q0 3.375 2.0 3.375q0.84375 0 1.359375 -0.484375q0.53125 -0.5 0.53125 -1.09375zm5.467331 -5.875l0 -2.890625l5.0625 0l-0.15625 0.96875q-0.0625 -0.1875 1.078125 -0.75q1.140625 -0.578125 2.46875 -0.578125q2.046875 0 3.171875 1.203125q1.140625 1.1875 1.140625 3.484375l0 5.78125l1.375 0.0625l0 2.90625l-6.71875 0l0 -2.796875l1.25 -0.09375q0.171875 -0.015625 0.203125 -0.046875q0.03125 -0.03125 0.03125 -0.25l0 -4.9375q0 -1.1875 -0.296875 -1.640625q-0.28125 -0.453125 -1.1875 -0.453125q-0.890625 0 -1.421875 0.578125q-0.53125 0.5625 -0.53125 1.34375l0 5.328125l1.375 0.0625l0 2.90625l-6.71875 0l0 -2.796875l1.25 -0.09375q0.171875 -0.015625 0.203125 -0.046875q0.03125 -0.03125 0.03125 -0.25l0 -6.65625q0 -0.234375 -0.125 -0.234375l-1.484375 -0.109375z" fill-rule="nonzero"></path><path fill="#fff2cc" d="m53.33719 48.73651l0 0.390625l-2.796875 0l0 -0.390625l0.53125 0.015625q0.203125 0 0.203125 -0.234375l0 -4.734375l-2.453125 5.453125l-0.328125 0l-2.75 -5.71875l0 5.0q0 0.234375 0.203125 0.234375l0.53125 -0.015625l0 0.390625l-1.796875 0l0 -0.390625l0.421875 0.015625q0.203125 0 0.203125 -0.234375l0 -5.3125q0 -0.078125 -0.09375 -0.0625l-0.453125 0.015625l0 -0.390625l2.1875 0l2.25 4.640625l2.09375 -4.640625l2.0 0l0 0.390625l-0.34375 -0.015625l-0.015625 0q-0.078125 0 -0.140625 0.0625q-0.046875 0.0625 -0.046875 0.140625l0 5.171875q0 0.25 0.203125 0.234375l0.390625 -0.015625zm5.263977 0.03125l0 0.359375l-1.9375 0q0.046875 -0.25 0.046875 -0.390625l0 -0.296875q-0.46875 0.734375 -1.46875 0.734375q-0.671875 0 -1.015625 -0.296875q-0.34375 -0.296875 -0.34375 -0.90625q0 -0.765625 0.671875 -1.140625q0.6875 -0.375 2.15625 -0.375l0 -0.75q0 -0.40625 -0.140625 -0.625q-0.125 -0.21875 -0.5625 -0.21875q-0.375 0 -0.53125 0.125q-0.15625 0.125 -0.15625 0.296875q0 0.140625 0.046875 0.25q0.046875 0.15625 0.046875 0.21875q0 0.234375 -0.171875 0.359375q-0.15625 0.125 -0.40625 0.125q-0.3125 0 -0.5 -0.171875q-0.171875 -0.171875 -0.171875 -0.4375q0 -0.515625 0.53125 -0.828125q0.53125 -0.3125 1.4375 -0.3125q1.984375 0 1.984375 1.421875l0 2.671875q0 0.203125 0.125 0.203125l0.359375 -0.015625zm-2.75 -0.21875q0.328125 0 0.5625 -0.28125q0.25 -0.28125 0.296875 -0.734375l0 -0.703125q-0.71875 0 -1.046875 0.25q-0.328125 0.25 -0.328125 0.765625q0 0.703125 0.515625 0.703125zm6.2265167 -4.0625q0.453125 0 0.75 0.265625q0.296875 0.265625 0.296875 0.703125q0 0.3125 -0.1875 0.484375q-0.1875 0.15625 -0.453125 0.15625q-0.234375 0 -0.40625 -0.109375q-0.171875 -0.125 -0.171875 -0.328125q0 -0.078125 0.046875 -0.234375q0.03125 -0.1875 0.03125 -0.203125q0 -0.234375 -0.203125 -0.234375q-0.28125 0 -0.5 0.3125q-0.21875 0.3125 -0.34375 0.78125q-0.109375 0.46875 -0.125 0.90625l0 1.59375q0 0.203125 0.140625 0.203125l0.734375 -0.015625l0 0.359375l-2.703125 0l0 -0.359375l0.296875 0.015625q0.140625 0 0.140625 -0.203125l0 -3.4375q0 -0.21875 -0.140625 -0.21875l-0.34375 0.03125l0 -0.359375l1.9375 0q-0.015625 0.0625 -0.046875 0.21875q-0.015625 0.140625 -0.015625 0.28125l0 0.484375q0.390625 -1.09375 1.265625 -1.09375zm6.6212616 4.28125l0 0.359375l-2.578125 0l0 -0.359375l0.359375 0.015625l0.03125 0q0.078125 0 0.09375 -0.03125q0.015625 -0.046875 -0.015625 -0.109375l-1.0625 -1.8125l-0.25 0.203125l0 1.546875q0 0.21875 0.140625 0.203125l0.375 -0.015625l0 0.359375l-2.390625 0l0 -0.359375l0.34375 0.015625q0.140625 -0.03125 0.140625 -0.203125l0 -6.6875q0 -0.21875 -0.125 -0.21875l-0.359375 0.015625l0 -0.34375l1.875 0l0 5.25l1.703125 -1.46875q0.078125 -0.0625 0.078125 -0.140625q0 -0.03125 -0.03125 -0.046875q-0.03125 -0.03125 -0.078125 -0.015625l-0.453125 0.015625l0 -0.34375l1.8125 0l0 0.34375l-0.390625 -0.015625q-0.15625 0 -0.328125 0.140625l-1.03125 0.890625l1.53125 2.640625q0.0625 0.078125 0.140625 0.140625q0.09375 0.0625 0.15625 0.046875l0.3125 -0.015625zm2.6933136 -4.28125q0.984375 0 1.5625 0.53125q0.578125 0.53125 0.59375 1.5l0 0.390625l-3.078125 0q0 0.921875 0.328125 1.40625q0.34375 0.46875 1.015625 0.484375q0.5 0 0.859375 -0.25q0.359375 -0.25 0.53125 -0.609375l0.296875 0.203125q-0.25 0.515625 -0.796875 0.8125q-0.53125 0.28125 -1.28125 0.28125q-1.265625 0 -1.859375 -0.578125q-0.578125 -0.578125 -0.578125 -1.78125q0 -1.21875 0.59375 -1.796875q0.609375 -0.59375 1.8125 -0.59375zm-0.03125 0.375q-0.453125 0 -0.671875 0.46875q-0.203125 0.46875 -0.203125 1.234375l1.421875 0q0.09375 0 0.140625 -0.078125q0.0625 -0.078125 0.0625 -0.28125q0 -0.6875 -0.171875 -1.015625q-0.171875 -0.328125 -0.578125 -0.328125zm4.5340576 -0.265625l1.0625 0l0 0.34375l-1.0625 0l0 3.265625q0 0.375 0.09375 0.5q0.09375 0.125 0.296875 0.125q0.140625 0 0.28125 -0.109375q0.140625 -0.109375 0.21875 -0.3125l0.28125 0.171875q-0.140625 0.328125 -0.4375 0.484375q-0.28125 0.15625 -0.734375 0.15625q-0.65625 0 -1.03125 -0.25q-0.359375 -0.25 -0.359375 -0.796875l0 -3.234375l-0.640625 0l0 -0.34375q0.421875 0 0.640625 -0.078125q0.234375 -0.078125 0.359375 -0.296875q0.140625 -0.234375 0.25 -0.703125l0.78125 0l0 1.078125zm3.929123 4.140625l0.359375 0.015625l0.03125 0q0.171875 0 0.171875 -0.234375l0 -5.140625q0 -0.125 -0.046875 -0.1875q-0.046875 -0.0625 -0.1875 -0.046875l-0.328125 0.015625l0 -0.390625l2.796875 0q1.203125 0 1.78125 0.4375q0.578125 0.4375 0.578125 1.34375q0 0.875 -0.5625 1.40625q-0.5625 0.53125 -1.515625 0.53125l-1.03125 0l0 2.03125q0 0.234375 0.203125 0.234375l0.53125 -0.015625l0 0.390625l-2.78125 0l0 -0.390625zm2.625 -2.640625q0.421875 0 0.703125 -0.4375q0.28125 -0.4375 0.28125 -1.109375q0 -0.625 -0.28125 -1.015625q-0.28125 -0.390625 -0.734375 -0.390625l-0.421875 0q-0.046875 0 -0.09375 0.03125q-0.03125 0.03125 -0.03125 0.09375l0 2.828125l0.578125 0zm3.0009003 2.671875l0.34375 0.015625q0.140625 -0.03125 0.140625 -0.203125l0 -6.703125q0 -0.171875 -0.125 -0.21875l-0.359375 0.015625l0 -0.34375l1.875 0l0 7.25q0 0.21875 0.140625 0.203125l0.359375 -0.015625l0 0.359375l-2.375 0l0 -0.359375zm7.4432526 0l0 0.359375l-1.9375 0q0.046875 -0.25 0.046875 -0.390625l0 -0.296875q-0.46875 0.734375 -1.46875 0.734375q-0.671875 0 -1.015625 -0.296875q-0.34375 -0.296875 -0.34375 -0.90625q0 -0.765625 0.671875 -1.140625q0.6875 -0.375 2.15625 -0.375l0 -0.75q0 -0.40625 -0.140625 -0.625q-0.125 -0.21875 -0.5625 -0.21875q-0.375 0 -0.53125 0.125q-0.15625 0.125 -0.15625 0.296875q0 0.140625 0.046875 0.25q0.046875 0.15625 0.046875 0.21875q0 0.234375 -0.171875 0.359375q-0.15625 0.125 -0.40625 0.125q-0.3125 0 -0.5 -0.171875q-0.171875 -0.171875 -0.171875 -0.4375q0 -0.515625 0.53125 -0.828125q0.53125 -0.3125 1.4375 -0.3125q1.984375 0 1.984375 1.421875l0 2.671875q0 0.203125 0.125 0.203125l0.359375 -0.015625zm-2.75 -0.21875q0.328125 0 0.5625 -0.28125q0.25 -0.28125 0.296875 -0.734375l0 -0.703125q-0.71875 0 -1.046875 0.25q-0.328125 0.25 -0.328125 0.765625q0 0.703125 0.515625 0.703125zm5.4608917 -4.0625q0.546875 0 0.96875 0.15625q0.421875 0.140625 0.65625 0.40625q0.25 0.25 0.25 0.5625q0 0.28125 -0.1875 0.46875q-0.171875 0.1875 -0.484375 0.1875q-0.265625 0 -0.4375 -0.109375q-0.15625 -0.125 -0.15625 -0.359375q0 -0.109375 0.046875 -0.234375q0.046875 -0.109375 0.046875 -0.234375q0 -0.234375 -0.1875 -0.34375q-0.171875 -0.125 -0.453125 -0.125q-0.46875 0 -0.71875 0.4375q-0.25 0.421875 -0.25 1.453125q0 1.15625 0.3125 1.625q0.3125 0.46875 0.859375 0.46875q0.4375 0 0.796875 -0.234375q0.359375 -0.25 0.546875 -0.796875l0.34375 0.15625q-0.46875 1.265625 -1.9375 1.265625q-1.046875 0 -1.71875 -0.578125q-0.671875 -0.578125 -0.671875 -1.765625q0 -1.171875 0.65625 -1.78125q0.65625 -0.625 1.71875 -0.625zm4.7093964 0q0.984375 0 1.5625 0.53125q0.578125 0.53125 0.59375 1.5l0 0.390625l-3.078125 0q0 0.921875 0.328125 1.40625q0.34375 0.46875 1.015625 0.484375q0.5 0 0.859375 -0.25q0.359375 -0.25 0.53125 -0.609375l0.296875 0.203125q-0.25 0.515625 -0.796875 0.8125q-0.53125 0.28125 -1.28125 0.28125q-1.265625 0 -1.859375 -0.578125q-0.578125 -0.578125 -0.578125 -1.78125q0 -1.21875 0.59375 -1.796875q0.609375 -0.59375 1.8125 -0.59375zm-0.03125 0.375q-0.453125 0 -0.671875 0.46875q-0.203125 0.46875 -0.203125 1.234375l1.421875 0q0.09375 0 0.140625 -0.078125q0.0625 -0.078125 0.0625 -0.28125q0 -0.6875 -0.171875 -1.015625q-0.171875 -0.328125 -0.578125 -0.328125z" fill-rule="nonzero"></path><path fill="#fff2cc" d="m28.892105 61.73651l0.40625 0.015625l0.015625 0q0.078125 0 0.109375 -0.0625q0.03125 -0.078125 0.03125 -0.171875l0 -5.15625q0 -0.09375 -0.046875 -0.15625q-0.046875 -0.0625 -0.15625 -0.0625l-0.359375 0.015625l0 -0.390625l2.59375 0q1.78125 0 2.609375 0.734375q0.84375 0.734375 0.84375 2.4375q0 1.578125 -0.8125 2.390625q-0.8125 0.796875 -2.515625 0.796875l-2.71875 0l0 -0.390625zm2.046875 -0.125q0 0.125 0.125 0.125l0.234375 0q0.78125 0 1.203125 -0.234375q0.4375 -0.234375 0.625 -0.828125q0.203125 -0.59375 0.203125 -1.71875q0 -1.125 -0.203125 -1.734375q-0.1875 -0.609375 -0.625 -0.84375q-0.421875 -0.234375 -1.203125 -0.234375l-0.234375 0q-0.125 0 -0.125 0.140625l0 5.328125zm7.646759 -4.125q0.453125 0 0.75 0.265625q0.296875 0.265625 0.296875 0.703125q0 0.3125 -0.1875 0.484375q-0.1875 0.15625 -0.453125 0.15625q-0.234375 0 -0.40625 -0.109375q-0.171875 -0.125 -0.171875 -0.328125q0 -0.078125 0.046875 -0.234375q0.03125 -0.1875 0.03125 -0.203125q0 -0.234375 -0.203125 -0.234375q-0.28125 0 -0.5 0.3125q-0.21875 0.3125 -0.34375 0.78125q-0.109375 0.46875 -0.125 0.90625l0 1.59375q0 0.203125 0.140625 0.203125l0.734375 -0.015625l0 0.359375l-2.703125 0l0 -0.359375l0.296875 0.015625q0.140625 0 0.140625 -0.203125l0 -3.4375q0 -0.21875 -0.140625 -0.21875l-0.34375 0.03125l0 -0.359375l1.9375 0q-0.015625 0.0625 -0.046875 0.21875q-0.015625 0.140625 -0.015625 0.28125l0 0.484375q0.390625 -1.09375 1.265625 -1.09375zm3.7306366 0q0.984375 0 1.5625 0.53125q0.578125 0.53125 0.59375 1.5l0 0.390625l-3.078125 0q0 0.921875 0.328125 1.40625q0.34375 0.46875 1.015625 0.484375q0.5 0 0.859375 -0.25q0.359375 -0.25 0.53125 -0.609375l0.296875 0.203125q-0.25 0.515625 -0.796875 0.8125q-0.53125 0.28125 -1.28125 0.28125q-1.265625 0 -1.859375 -0.578125q-0.578125 -0.578125 -0.578125 -1.78125q0 -1.21875 0.59375 -1.796875q0.609375 -0.59375 1.8125 -0.59375zm-0.03125 0.375q-0.453125 0 -0.671875 0.46875q-0.203125 0.46875 -0.203125 1.234375l1.421875 0q0.09375 0 0.140625 -0.078125q0.0625 -0.078125 0.0625 -0.28125q0 -0.6875 -0.171875 -1.015625q-0.171875 -0.328125 -0.578125 -0.328125zm7.2528076 3.90625l0 0.359375l-1.9375 0q0.046875 -0.25 0.046875 -0.390625l0 -0.296875q-0.46875 0.734375 -1.46875 0.734375q-0.671875 0 -1.015625 -0.296875q-0.34375 -0.296875 -0.34375 -0.90625q0 -0.765625 0.671875 -1.140625q0.6875 -0.375 2.15625 -0.375l0 -0.75q0 -0.40625 -0.140625 -0.625q-0.125 -0.21875 -0.5625 -0.21875q-0.375 0 -0.53125 0.125q-0.15625 0.125 -0.15625 0.296875q0 0.140625 0.046875 0.25q0.046875 0.15625 0.046875 0.21875q0 0.234375 -0.171875 0.359375q-0.15625 0.125 -0.40625 0.125q-0.3125 0 -0.5 -0.171875q-0.171875 -0.171875 -0.171875 -0.4375q0 -0.515625 0.53125 -0.828125q0.53125 -0.3125 1.4375 -0.3125q1.984375 0 1.984375 1.421875l0 2.671875q0 0.203125 0.125 0.203125l0.359375 -0.015625zm-2.75 -0.21875q0.328125 0 0.5625 -0.28125q0.25 -0.28125 0.296875 -0.734375l0 -0.703125q-0.71875 0 -1.046875 0.25q-0.328125 0.25 -0.328125 0.765625q0 0.703125 0.515625 0.703125zm11.351517 0.21875l0 0.359375l-2.40625 0l0 -0.359375l0.375 0.015625q0.140625 -0.03125 0.140625 -0.203125l0 -2.578125q0 -0.546875 -0.078125 -0.78125q-0.078125 -0.234375 -0.328125 -0.234375q-0.234375 0 -0.5 0.234375q-0.265625 0.234375 -0.453125 0.6875q-0.171875 0.453125 -0.1875 1.0625l0 1.609375q0 0.203125 0.140625 0.203125l0.375 -0.015625l0 0.359375l-2.421875 0l0 -0.359375l0.375 0.015625q0.140625 -0.03125 0.140625 -0.203125l0 -2.578125q0 -0.5625 -0.09375 -0.78125q-0.078125 -0.234375 -0.34375 -0.234375q-0.21875 0 -0.46875 0.234375q-0.25 0.21875 -0.4375 0.640625q-0.1875 0.421875 -0.21875 1.0l0 1.71875q0 0.21875 0.140625 0.203125l0.390625 -0.015625l0 0.359375l-2.40625 0l0 -0.359375l0.34375 0.015625q0.140625 -0.03125 0.140625 -0.203125l0 -3.4375q0 -0.1875 -0.140625 -0.21875l-0.34375 0.03125l0 -0.359375l1.9375 0q-0.046875 0.15625 -0.046875 0.359375l0 0.609375q0.21875 -0.515625 0.640625 -0.796875q0.421875 -0.28125 0.984375 -0.28125q0.578125 0 0.890625 0.265625q0.3125 0.265625 0.390625 0.875q0.234375 -0.546875 0.65625 -0.84375q0.421875 -0.296875 1.015625 -0.296875q0.671875 0 0.984375 0.375q0.328125 0.359375 0.328125 1.15625l0 2.5625q0 0.203125 0.125 0.203125l0.359375 -0.015625zm2.7217407 -0.03125l0.359375 0.015625l0.03125 0q0.171875 0 0.171875 -0.234375l0 -5.140625q0 -0.125 -0.046875 -0.1875q-0.046875 -0.0625 -0.1875 -0.046875l-0.328125 0.015625l0 -0.390625l2.796875 0q1.203125 0 1.78125 0.4375q0.578125 0.4375 0.578125 1.34375q0 0.875 -0.5625 1.40625q-0.5625 0.53125 -1.515625 0.53125l-1.03125 0l0 2.03125q0 0.234375 0.203125 0.234375l0.53125 -0.015625l0 0.390625l-2.78125 0l0 -0.390625zm2.625 -2.640625q0.421875 0 0.703125 -0.4375q0.28125 -0.4375 0.28125 -1.109375q0 -0.625 -0.28125 -1.015625q-0.28125 -0.390625 -0.734375 -0.390625l-0.421875 0q-0.046875 0 -0.09375 0.03125q-0.03125 0.03125 -0.03125 0.09375l0 2.828125l0.578125 0zm3.0009003 2.671875l0.34375 0.015625q0.140625 -0.03125 0.140625 -0.203125l0 -6.703125q0 -0.171875 -0.125 -0.21875l-0.359375 0.015625l0 -0.34375l1.875 0l0 7.25q0 0.21875 0.140625 0.203125l0.359375 -0.015625l0 0.359375l-2.375 0l0 -0.359375zm7.4432526 0l0 0.359375l-1.9375 0q0.046875 -0.25 0.046875 -0.390625l0 -0.296875q-0.46875 0.734375 -1.46875 0.734375q-0.671875 0 -1.015625 -0.296875q-0.34375 -0.296875 -0.34375 -0.90625q0 -0.765625 0.671875 -1.140625q0.6875 -0.375 2.15625 -0.375l0 -0.75q0 -0.40625 -0.140625 -0.625q-0.125 -0.21875 -0.5625 -0.21875q-0.375 0 -0.53125 0.125q-0.15625 0.125 -0.15625 0.296875q0 0.140625 0.046875 0.25q0.046875 0.15625 0.046875 0.21875q0 0.234375 -0.171875 0.359375q-0.15625 0.125 -0.40625 0.125q-0.3125 0 -0.5 -0.171875q-0.171875 -0.171875 -0.171875 -0.4375q0 -0.515625 0.53125 -0.828125q0.53125 -0.3125 1.4375 -0.3125q1.984375 0 1.984375 1.421875l0 2.671875q0 0.203125 0.125 0.203125l0.359375 -0.015625zm-2.75 -0.21875q0.328125 0 0.5625 -0.28125q0.25 -0.28125 0.296875 -0.734375l0 -0.703125q-0.71875 0 -1.046875 0.25q-0.328125 0.25 -0.328125 0.765625q0 0.703125 0.515625 0.703125zm5.4608917 -4.0625q0.546875 0 0.96875 0.15625q0.421875 0.140625 0.65625 0.40625q0.25 0.25 0.25 0.5625q0 0.28125 -0.1875 0.46875q-0.171875 0.1875 -0.484375 0.1875q-0.265625 0 -0.4375 -0.109375q-0.15625 -0.125 -0.15625 -0.359375q0 -0.109375 0.046875 -0.234375q0.046875 -0.109375 0.046875 -0.234375q0 -0.234375 -0.1875 -0.34375q-0.171875 -0.125 -0.453125 -0.125q-0.46875 0 -0.71875 0.4375q-0.25 0.421875 -0.25 1.453125q0 1.15625 0.3125 1.625q0.3125 0.46875 0.859375 0.46875q0.4375 0 0.796875 -0.234375q0.359375 -0.25 0.546875 -0.796875l0.34375 0.15625q-0.46875 1.265625 -1.9375 1.265625q-1.046875 0 -1.71875 -0.578125q-0.671875 -0.578125 -0.671875 -1.765625q0 -1.171875 0.65625 -1.78125q0.65625 -0.625 1.71875 -0.625zm4.7093964 0q0.984375 0 1.5625 0.53125q0.578125 0.53125 0.59375 1.5l0 0.390625l-3.078125 0q0 0.921875 0.328125 1.40625q0.34375 0.46875 1.015625 0.484375q0.5 0 0.859375 -0.25q0.359375 -0.25 0.53125 -0.609375l0.296875 0.203125q-0.25 0.515625 -0.796875 0.8125q-0.53125 0.28125 -1.28125 0.28125q-1.265625 0 -1.859375 -0.578125q-0.578125 -0.578125 -0.578125 -1.78125q0 -1.21875 0.59375 -1.796875q0.609375 -0.59375 1.8125 -0.59375zm-0.03125 0.375q-0.453125 0 -0.671875 0.46875q-0.203125 0.46875 -0.203125 1.234375l1.421875 0q0.09375 0 0.140625 -0.078125q0.0625 -0.078125 0.0625 -0.28125q0 -0.6875 -0.171875 -1.015625q-0.171875 -0.328125 -0.578125 -0.328125zm6.7186127 -0.265625l1.0625 0l0 0.34375l-1.0625 0l0 3.265625q0 0.375 0.09375 0.5q0.09375 0.125 0.296875 0.125q0.140625 0 0.28125 -0.109375q0.140625 -0.109375 0.21875 -0.3125l0.28125 0.171875q-0.140625 0.328125 -0.4375 0.484375q-0.28125 0.15625 -0.734375 0.15625q-0.65625 0 -1.03125 -0.25q-0.359375 -0.25 -0.359375 -0.796875l0 -3.234375l-0.640625 0l0 -0.34375q0.421875 0 0.640625 -0.078125q0.234375 -0.078125 0.359375 -0.296875q0.140625 -0.234375 0.25 -0.703125l0.78125 0l0 1.078125zm1.5414429 2.265625q0 -1.15625 0.59375 -1.765625q0.59375 -0.609375 1.78125 -0.609375q1.203125 0 1.78125 0.609375q0.59375 0.609375 0.59375 1.765625q0 2.375 -2.375 2.375q-1.1875 0 -1.78125 -0.609375q-0.59375 -0.609375 -0.59375 -1.765625zm1.484375 0.015625q0 1.078125 0.203125 1.53125q0.21875 0.453125 0.6875 0.453125q0.484375 0 0.6875 -0.4375q0.203125 -0.453125 0.203125 -1.546875q0 -1.109375 -0.203125 -1.5625q-0.203125 -0.453125 -0.6875 -0.453125q-0.46875 0 -0.6875 0.453125q-0.203125 0.453125 -0.203125 1.5625zm6.4523315 0.09375q0.109375 0.921875 0.59375 1.40625q0.5 0.46875 1.234375 0.46875q0.546875 0 0.859375 -0.296875q0.3125 -0.296875 0.3125 -0.78125q0 -0.75 -1.015625 -1.140625l-1.046875 -0.4375q-1.203125 -0.5 -1.203125 -1.65625q0 -0.515625 0.234375 -0.9375q0.25 -0.421875 0.734375 -0.671875q0.5 -0.265625 1.203125 -0.265625q0.34375 0 0.59375 0.0625q0.25 0.046875 0.484375 0.140625q0.25 0.078125 0.359375 0.109375q0.1875 0.0625 0.3125 0.0625q0.1875 0 0.296875 -0.046875q-0.03125 0.265625 -0.03125 0.8125q0 0.3125 0.015625 0.453125q0.015625 0.140625 0.0625 0.25l-0.375 0q0 -0.65625 -0.453125 -1.0625q-0.453125 -0.421875 -1.09375 -0.421875q-0.515625 0 -0.84375 0.265625q-0.328125 0.265625 -0.328125 0.703125q0 0.296875 0.21875 0.53125q0.21875 0.234375 0.6875 0.4375l0.90625 0.375q0.84375 0.359375 1.1875 0.78125q0.359375 0.40625 0.359375 1.078125q0 0.578125 -0.265625 1.046875q-0.265625 0.453125 -0.796875 0.734375q-0.515625 0.265625 -1.25 0.265625q-0.46875 0 -1.015625 -0.140625q-0.609375 -0.15625 -0.828125 -0.15625q-0.109375 0 -0.25 0.015625q-0.125 0.015625 -0.15625 0.03125q0.03125 -0.21875 0.03125 -0.8125q0 -0.4375 -0.015625 -0.796875q-0.015625 -0.359375 -0.0625 -0.375l0.34375 -0.03125zm10.1506195 1.796875l0 0.359375l-2.421875 0l0 -0.359375l0.40625 0.015625q0.125 -0.03125 0.125 -0.203125l0 -2.578125q0 -0.5625 -0.09375 -0.78125q-0.078125 -0.234375 -0.40625 -0.234375q-0.265625 0 -0.53125 0.234375q-0.265625 0.234375 -0.4375 0.703125q-0.171875 0.453125 -0.171875 1.09375l0 1.5625q0 0.203125 0.140625 0.203125l0.421875 -0.015625l0 0.359375l-2.4375 0l0 -0.359375l0.34375 0.015625q0.140625 -0.03125 0.140625 -0.203125l0 -6.6875q0 -0.1875 -0.140625 -0.21875l-0.34375 0.03125l0 -0.359375l1.875 0l0 4.21875q0.234375 -0.515625 0.65625 -0.796875q0.421875 -0.28125 1.0 -0.28125q0.71875 0 1.046875 0.375q0.34375 0.359375 0.34375 1.15625l0 2.5625q0 0.203125 0.140625 0.203125l0.34375 -0.015625zm0.3375244 -1.90625q0 -1.15625 0.59375 -1.765625q0.59375 -0.609375 1.78125 -0.609375q1.203125 0 1.78125 0.609375q0.59375 0.609375 0.59375 1.765625q0 2.375 -2.375 2.375q-1.1875 0 -1.78125 -0.609375q-0.59375 -0.609375 -0.59375 -1.765625zm1.484375 0.015625q0 1.078125 0.203125 1.53125q0.21875 0.453125 0.6875 0.453125q0.484375 0 0.6875 -0.4375q0.203125 -0.453125 0.203125 -1.546875q0 -1.109375 -0.203125 -1.5625q-0.203125 -0.453125 -0.6875 -0.453125q-0.46875 0 -0.6875 0.453125q-0.203125 0.453125 -0.203125 1.5625zm6.9552765 -2.390625q0.9375 0 1.375 0.59375q0.453125 0.578125 0.453125 1.796875q0 1.1875 -0.5 1.78125q-0.484375 0.578125 -1.53125 0.578125q-0.4375 0 -0.75 -0.140625q-0.3125 -0.140625 -0.453125 -0.390625l0 2.421875q0 0.21875 0.125 0.21875l0.671875 -0.03125l0 0.359375l-2.640625 0l0 -0.359375l0.296875 0.03125q0.140625 -0.015625 0.140625 -0.21875l0 -5.984375q0 -0.21875 -0.140625 -0.21875l-0.34375 0.03125l0 -0.359375l1.921875 0q-0.03125 0.265625 -0.03125 0.546875l0 0.265625q0.15625 -0.453125 0.484375 -0.6875q0.34375 -0.234375 0.921875 -0.234375zm-0.40625 0.484375q-0.46875 0 -0.734375 0.46875q-0.25 0.46875 -0.25 1.25l0 0.453125q0 1.59375 0.921875 1.59375q0.3125 0 0.484375 -0.171875q0.1875 -0.171875 0.25 -0.5625q0.078125 -0.40625 0.078125 -1.125q0 -0.734375 -0.0625 -1.140625q-0.0625 -0.40625 -0.234375 -0.578125q-0.15625 -0.1875 -0.453125 -0.1875z" fill-rule="nonzero"></path><path fill="#000000" fill-opacity="0.0" d="m18.776684 20.976377c1.7664051 0.7125988 10.877079 2.4475079 10.598425 4.275591c-0.2786522 1.828085 -12.797024 4.585739 -12.27034 6.692913c0.5266838 2.107174 12.8587055 4.9584427 15.430445 5.9501305" fill-rule="evenodd"></path><path stroke="#0000ff" stroke-width="1.0" stroke-linejoin="round" stroke-linecap="butt" d="m18.776684 20.976377c1.7664051 0.7125988 10.877079 2.4475079 10.598425 4.275591c-0.2786522 1.828085 -12.797024 4.585739 -12.27034 6.692913c0.5266838 2.107174 12.8587055 4.9584427 15.430445 5.9501305" fill-rule="evenodd"></path><path fill="#000000" fill-opacity="0.0" d="m9.670576 21.52231c0.030621529 3.0056858 -2.2327209 18.405512 0.18372726 18.03412c2.4164476 -0.3713913 11.929134 -16.88539 14.3149605 -20.262468" fill-rule="evenodd"></path><path stroke="#0000ff" stroke-width="1.0" stroke-linejoin="round" stroke-linecap="butt" d="m9.670576 21.52231c0.030621529 3.0056858 -2.2327209 18.405512 0.18372726 18.03412c2.4164476 -0.3713913 11.929134 -16.88539 14.3149605 -20.262468" fill-rule="evenodd"></path></g></svg>

